<svg width="20" height="20" viewBox="0 0 20 20" fill="none" xmlns="http://www.w3.org/2000/svg">
<path d="M19.5511 17.3766L12.1693 9.97978L19.5111 2.62335C20.1098 2.02311 20.1098 1.05009 19.5111 0.45018C18.912 -0.149734 17.9413 -0.149734 17.3422 0.45018L10.0004 7.80661L2.65891 0.45018C2.05986 -0.149734 1.08911 -0.149734 0.490053 0.45018C-0.108999 1.05042 -0.108999 2.02344 0.490053 2.62335L7.83156 9.97978L0.449045 17.3766C-0.150007 17.9769 -0.150007 18.9496 0.449045 19.5498C0.748571 19.8499 1.14094 19.9998 1.53364 19.9998C1.92633 19.9998 2.3187 19.8499 2.61823 19.5498L10.0004 12.153L17.3823 19.5498C17.6818 19.8499 18.0742 19.9998 18.4669 19.9998C18.8596 19.9998 19.2519 19.8499 19.5515 19.5498C20.1498 18.9499 20.1498 17.9769 19.5511 17.3766Z" fill="#56577D"/>
</svg>
