<svg width="19" height="5" viewBox="0 0 19 5" fill="none" xmlns="http://www.w3.org/2000/svg">
<path d="M10.2729 0.272736H8.27285C7.99508 0.272736 7.75898 0.369969 7.5645 0.564436C7.37003 0.758903 7.27283 0.99489 7.27283 1.27276V3.27289C7.27283 3.5508 7.37006 3.78682 7.5645 3.98107C7.75898 4.17561 7.99508 4.27274 8.27285 4.27274H10.2729C10.5507 4.27274 10.7868 4.17561 10.9812 3.98107C11.1756 3.78682 11.2728 3.5508 11.2728 3.27289V1.27276C11.2728 0.99489 11.1756 0.758793 10.9812 0.564436C10.7868 0.369969 10.5507 0.272736 10.2729 0.272736Z" fill="#7B7CA6"/>
<path d="M3 0.272736H0.999927C0.722234 0.272736 0.486062 0.36997 0.291594 0.564439C0.0971249 0.758871 0 0.994897 0 1.27274V3.27288C0 3.55079 0.0971249 3.78682 0.291594 3.98107C0.486062 4.17561 0.722234 4.27274 0.999927 4.27274H3C3.27769 4.27274 3.51386 4.17561 3.70833 3.98107C3.9028 3.78682 4 3.55079 4 3.27288V1.27274C4 0.994861 3.9028 0.758762 3.70833 0.564402C3.51386 0.37008 3.27769 0.272736 3 0.272736Z" fill="#7B7CA6"/>
<path d="M18.2537 0.564436C18.0592 0.369969 17.823 0.272736 17.5453 0.272736H15.5453C15.2673 0.272736 15.0313 0.369969 14.8369 0.564436C14.6425 0.758903 14.5452 0.99489 14.5452 1.27276V3.27289C14.5452 3.5508 14.6425 3.78682 14.8369 3.98107C15.0313 4.17561 15.2673 4.27274 15.5453 4.27274H17.5453C17.823 4.27274 18.0592 4.17561 18.2537 3.98107C18.448 3.78682 18.5452 3.5508 18.5452 3.27289V1.27276C18.5452 0.99489 18.4482 0.758757 18.2537 0.564436Z" fill="#7B7CA6"/>
</svg>
