<svg width="22" height="22" viewBox="0 0 22 22" fill="none" xmlns="http://www.w3.org/2000/svg">
<path d="M21 0.25H1C0.801088 0.25 0.610322 0.329018 0.46967 0.46967C0.329018 0.610322 0.25 0.801088 0.25 1V21C0.25 21.1989 0.329018 21.3897 0.46967 21.5303C0.610322 21.671 0.801088 21.75 1 21.75H21C21.1989 21.75 21.3897 21.671 21.5303 21.5303C21.671 21.3897 21.75 21.1989 21.75 21V1C21.75 0.801088 21.671 0.610322 21.5303 0.46967C21.3897 0.329018 21.1989 0.25 21 0.25ZM11 15.9H4.445C4.24609 15.9 4.05532 15.821 3.91467 15.6803C3.77402 15.5397 3.695 15.3489 3.695 15.15C3.695 14.9511 3.77402 14.7603 3.91467 14.6197C4.05532 14.479 4.24609 14.4 4.445 14.4H11C11.1989 14.4 11.3897 14.479 11.5303 14.6197C11.671 14.7603 11.75 14.9511 11.75 15.15C11.75 15.3489 11.671 15.5397 11.5303 15.6803C11.3897 15.821 11.1989 15.9 11 15.9ZM14.28 11.75H4.445C4.24609 11.75 4.05532 11.671 3.91467 11.5303C3.77402 11.3897 3.695 11.1989 3.695 11C3.695 10.8011 3.77402 10.6103 3.91467 10.4697C4.05532 10.329 4.24609 10.25 4.445 10.25H14.28C14.4789 10.25 14.6697 10.329 14.8103 10.4697C14.951 10.6103 15.03 10.8011 15.03 11C15.03 11.1989 14.951 11.3897 14.8103 11.5303C14.6697 11.671 14.4789 11.75 14.28 11.75ZM17.555 7.6H4.445C4.24609 7.6 4.05532 7.52098 3.91467 7.38033C3.77402 7.23968 3.695 7.04891 3.695 6.85C3.695 6.65109 3.77402 6.46032 3.91467 6.31967C4.05532 6.17902 4.24609 6.1 4.445 6.1H17.555C17.7539 6.1 17.9447 6.17902 18.0853 6.31967C18.226 6.46032 18.305 6.65109 18.305 6.85C18.305 7.04891 18.226 7.23968 18.0853 7.38033C17.9447 7.52098 17.7539 7.6 17.555 7.6Z" fill="#6100FF"/>
</svg>
