<svg width="14" height="14" viewBox="0 0 14 14" fill="none" xmlns="http://www.w3.org/2000/svg">
<g clip-path="url(#clip0_10_1863)">
<path d="M7.00058 0C3.13345 0 0 3.13396 0 7.00135C0 10.8664 3.13345 14.0002 7.00058 14.0002C10.8683 14.0002 14 10.8664 14 7.00135C14 3.13377 10.8683 0 7.00058 0ZM10.0617 9.04859C10.3283 9.3238 10.2459 9.83672 9.87638 10.195C9.50703 10.5533 8.99174 10.6219 8.72463 10.3467L6.9799 8.55036L5.18279 10.2949C4.90814 10.5615 4.39517 10.478 4.03683 10.1092C3.67849 9.74047 3.61046 9.22523 3.88511 8.95815L5.68222 7.21356L3.93749 5.41659C3.67096 5.14197 3.75465 4.62847 4.12342 4.27015C4.49162 3.91242 5.00806 3.8442 5.27401 4.11844L7.01875 5.91521L8.81644 4.1714C9.09167 3.90431 9.60463 3.9878 9.96239 4.35654C10.3213 4.72529 10.3888 5.24111 10.1141 5.5082L8.31759 7.25221L10.0617 9.04859Z" fill="#B9BACF"/>
</g>
<defs>
<clipPath id="clip0_10_1863">
<rect width="14" height="14" fill="white"/>
</clipPath>
</defs>
</svg>
