<svg width="18" height="18" viewBox="0 0 18 18" fill="none" xmlns="http://www.w3.org/2000/svg">
<path fill-rule="evenodd" clip-rule="evenodd" d="M15.875 8.0625H5.25C4.7325 8.0625 4.3125 8.4825 4.3125 9C4.3125 9.5175 4.7325 9.9375 5.25 9.9375H15.875C16.3925 9.9375 16.8125 9.5175 16.8125 9C16.8125 8.4825 16.3925 8.0625 15.875 8.0625Z" fill="#B9BACF"/>
<path fill-rule="evenodd" clip-rule="evenodd" d="M14.0376 12.7875L17.1626 9.66249C17.5288 9.29624 17.5288 8.70374 17.1626 8.33749L14.0376 5.21249C13.6726 4.84624 13.0776 4.84624 12.7126 5.21249C12.3463 5.57749 12.3463 6.17249 12.7126 6.53749L15.1738 8.99999L12.7126 11.4625C12.3463 11.8275 12.3463 12.4225 12.7126 12.7875C13.0776 13.1537 13.6726 13.1537 14.0376 12.7875Z" fill="#B9BACF"/>
<path fill-rule="evenodd" clip-rule="evenodd" d="M9 15.5625H2.75C2.6675 15.5625 2.5875 15.53 2.52875 15.4713C2.47 15.4125 2.4375 15.3325 2.4375 15.25V2.75C2.4375 2.6675 2.47 2.5875 2.52875 2.52875C2.5875 2.47 2.6675 2.4375 2.75 2.4375H9C9.5175 2.4375 9.9375 2.0175 9.9375 1.5C9.9375 0.9825 9.5175 0.5625 9 0.5625C7.07875 0.5625 4.67125 0.5625 2.75 0.5625C2.17 0.5625 1.61375 0.7925 1.20375 1.20375C0.7925 1.61375 0.5625 2.17 0.5625 2.75C0.5625 5.575 0.5625 12.425 0.5625 15.25C0.5625 15.83 0.7925 16.3863 1.20375 16.7963C1.61375 17.2075 2.17 17.4375 2.75 17.4375H9C9.5175 17.4375 9.9375 17.0175 9.9375 16.5C9.9375 15.9825 9.5175 15.5625 9 15.5625Z" fill="#B9BACF"/>
</svg>
