<svg width="28" height="18" viewBox="0 0 28 18" fill="none" xmlns="http://www.w3.org/2000/svg">
<path d="M1.5 2.02499H26.5C26.7486 2.02499 26.9871 1.92622 27.1629 1.75041C27.3387 1.57459 27.4375 1.33613 27.4375 1.08749C27.4375 0.838853 27.3387 0.600397 27.1629 0.424582C26.9871 0.248766 26.7486 0.149994 26.5 0.149994H1.5C1.25136 0.149994 1.0129 0.248766 0.837087 0.424582C0.661272 0.600397 0.5625 0.838853 0.5625 1.08749C0.5625 1.33613 0.661272 1.57459 0.837087 1.75041C1.0129 1.92622 1.25136 2.02499 1.5 2.02499Z" fill="#B9BACF"/>
<path d="M26.5 8.0625H1.5C1.25136 8.0625 1.0129 8.16127 0.837087 8.33709C0.661272 8.5129 0.5625 8.75136 0.5625 9C0.5625 9.24864 0.661272 9.4871 0.837087 9.66291C1.0129 9.83873 1.25136 9.9375 1.5 9.9375H26.5C26.7486 9.9375 26.9871 9.83873 27.1629 9.66291C27.3387 9.4871 27.4375 9.24864 27.4375 9C27.4375 8.75136 27.3387 8.5129 27.1629 8.33709C26.9871 8.16127 26.7486 8.0625 26.5 8.0625Z" fill="#B9BACF"/>
<path d="M26.5 15.975H1.5C1.25136 15.975 1.0129 16.0738 0.837087 16.2496C0.661272 16.4254 0.5625 16.6639 0.5625 16.9125C0.5625 17.1611 0.661272 17.3996 0.837087 17.5754C1.0129 17.7512 1.25136 17.85 1.5 17.85H26.5C26.7486 17.85 26.9871 17.7512 27.1629 17.5754C27.3387 17.3996 27.4375 17.1611 27.4375 16.9125C27.4375 16.6639 27.3387 16.4254 27.1629 16.2496C26.9871 16.0738 26.7486 15.975 26.5 15.975Z" fill="#B9BACF"/>
</svg>
