<svg width="24" height="26" viewBox="0 0 24 26" fill="none" xmlns="http://www.w3.org/2000/svg">
<path d="M22.325 19.3L21.3625 17.8125C19.7 15.3625 18.825 12.475 18.825 9.5C18.825 6.35 16.7251 3.8125 13.9251 2.9375C13.6626 2.15 12.8751 1.625 12.0001 1.625C11.1251 1.625 10.3376 2.15 10.0751 2.9375C7.27505 3.8125 5.17505 6.35 5.17505 9.5C5.17505 12.475 4.30005 15.3625 2.63755 17.8125L1.67505 19.3C1.23755 20 1.67505 20.875 2.55005 20.875H21.45C22.325 20.875 22.7625 20 22.325 19.3Z" stroke="#56577D" stroke-width="2" stroke-miterlimit="10" stroke-linecap="round" stroke-linejoin="round"/>
<path d="M15.5 20.875C15.5 22.8 13.925 24.375 12 24.375C10.075 24.375 8.5 22.8 8.5 20.875" stroke="#56577D" stroke-width="2" stroke-miterlimit="10" stroke-linecap="round" stroke-linejoin="round"/>
</svg>
