<svg width="24" height="24" viewBox="0 0 24 24" fill="none" xmlns="http://www.w3.org/2000/svg">
<path d="M23.385 11.53L21.68 9.405L22.095 6.715C22.1223 6.54582 22.0905 6.37238 22.0049 6.22392C21.9193 6.07546 21.7851 5.96106 21.625 5.9L19.085 4.9L18.085 2.36C18.0239 2.19987 17.9095 2.06569 17.7611 1.98007C17.6126 1.89446 17.4392 1.86265 17.27 1.89L14.58 2.305L12.47 0.614997C12.3368 0.507866 12.171 0.449463 12 0.449463C11.829 0.449463 11.6632 0.507866 11.53 0.614997L9.405 2.32L6.715 1.905C6.54582 1.87765 6.37238 1.90946 6.22392 1.99507C6.07547 2.08069 5.96106 2.21487 5.9 2.375L4.9 4.915L2.36 5.915C2.19987 5.97606 2.06569 6.09046 1.98008 6.23892C1.89446 6.38738 1.86265 6.56082 1.89 6.73L2.305 9.42L0.615 11.53C0.507869 11.6632 0.449466 11.829 0.449466 12C0.449466 12.171 0.507869 12.3368 0.615 12.47L2.32 14.595L1.905 17.285C1.87765 17.4542 1.90946 17.6276 1.99508 17.7761C2.08069 17.9245 2.21487 18.0389 2.375 18.1L4.915 19.1L5.915 21.64C5.97684 21.7996 6.09139 21.9332 6.23964 22.0187C6.38789 22.1042 6.56091 22.1364 6.73 22.11L9.42 21.695L11.545 23.4C11.6782 23.5071 11.844 23.5655 12.015 23.5655C12.186 23.5655 12.3518 23.5071 12.485 23.4L14.61 21.695L17.3 22.11C17.4692 22.1373 17.6426 22.1055 17.7911 22.0199C17.9395 21.9343 18.0539 21.8001 18.115 21.64L19.115 19.1L21.655 18.1C21.8151 18.0389 21.9493 17.9245 22.0349 17.7761C22.1205 17.6276 22.1523 17.4542 22.125 17.285L21.71 14.595L23.415 12.47C23.5179 12.3334 23.5711 12.1657 23.5656 11.9947C23.5602 11.8237 23.4964 11.6598 23.385 11.53ZM20.305 13.915C20.2385 13.9957 20.1899 14.0895 20.1623 14.1904C20.1347 14.2912 20.1288 14.3967 20.145 14.5L20.5 16.92L18.215 17.805C18.1176 17.8432 18.0291 17.9011 17.9551 17.9751C17.8811 18.0491 17.8232 18.1376 17.785 18.235L16.92 20.5L14.5 20.145C14.3975 20.1296 14.2929 20.1358 14.193 20.1634C14.0931 20.191 14.0001 20.2392 13.92 20.305L12 21.84L10.085 20.305C9.95252 20.1966 9.78617 20.1382 9.615 20.14H9.5L7.08 20.5L6.195 18.215C6.15602 18.118 6.09783 18.03 6.02394 17.9561C5.95004 17.8822 5.86196 17.824 5.765 17.785L3.5 16.92L3.855 14.5C3.87044 14.3975 3.86417 14.2929 3.83661 14.193C3.80904 14.0931 3.7608 14.0001 3.695 13.92L2.16 12L3.695 10.085C3.76148 10.0043 3.81011 9.91047 3.83768 9.80964C3.86526 9.70881 3.87116 9.60328 3.855 9.5L3.5 7.08L5.785 6.195C5.88288 6.15759 5.97178 6.09996 6.04587 6.02587C6.11997 5.95177 6.1776 5.86288 6.215 5.765L7.08 3.5L9.505 3.875C9.60749 3.89043 9.71208 3.88417 9.812 3.8566C9.91191 3.82904 10.0049 3.7808 10.085 3.715L12 2.16L13.915 3.695C13.9951 3.7608 14.0881 3.80904 14.188 3.8366C14.2879 3.86417 14.3925 3.87043 14.495 3.855L16.92 3.5L17.805 5.785C17.8432 5.88241 17.9011 5.97089 17.9751 6.04488C18.0491 6.11887 18.1376 6.17679 18.235 6.215L20.5 7.08L20.145 9.5C20.1296 9.60249 20.1358 9.70708 20.1634 9.80699C20.191 9.90691 20.2392 9.99992 20.305 10.08L21.84 12L20.305 13.915Z" fill="#56577D"/>
<path d="M12 6.26999C10.4807 6.27131 9.02404 6.87543 7.94974 7.94973C6.87544 9.02403 6.27132 10.4807 6.27 12C6.585 19.6 17.415 19.6 17.73 12C17.7287 10.4807 17.1246 9.02403 16.0503 7.94973C14.976 6.87543 13.5193 6.27131 12 6.26999ZM12 16.23C10.8789 16.2273 9.80456 15.7808 9.01186 14.9881C8.21915 14.1954 7.77264 13.121 7.77 12C8 6.39499 16 6.39999 16.23 12C16.2274 13.121 15.7809 14.1954 14.9881 14.9881C14.1954 15.7808 13.1211 16.2273 12 16.23Z" fill="#56577D"/>
</svg>
